Coordinates
version=1
nRows=30
nColumns=30
inDegrees=yes

Units are S.I. units (second, meters, Newtons, ...)
Angles are in degrees.

endheader
time	floatyaw	floatroll	floatpitch	floatx	floaty	floatz	pro_sup_l	deviation_l	flexion_l	cmc_flexion_l	cmc_abduction_l	mp_flexion_l	ip_flexion_l	2mcp_flexion_l	2mcp_abduction_l	2pm_flexion_l	2md_flexion_l	3mcp_flexion_l	3mcp_abduction_l	3pm_flexion_l	3md_flexion_l	4mcp_flexion_l	4mcp_abduction_l	4pm_flexion_l	4md_flexion_l	5mcp_flexion_l	5mcp_abduction_l	5pm_flexion_l	5md_flexion_l
0.005000	-2.367547	-3.808797	97.590660	0.064109	-0.116142	0.052998	90.871366	21.032502	-0.999940	-3.156272	36.712975	-24.922313	-39.308519	63.456195	8.959670	65.828565	47.279853	66.510308	6.194764	69.538524	48.255076	70.460286	-4.675814	79.036696	51.673317	51.725164	-10.416667	85.035177	52.264132
0.015000	-2.367547	-3.808797	97.590660	0.063845	-0.114165	0.052175	90.120914	21.362045	-1.219041	-3.580134	36.678933	-25.514354	-39.848790	63.519686	9.027002	65.266614	47.377887	67.628066	6.331993	69.223395	48.365905	71.420473	-4.842845	79.487042	52.560873	53.561490	-10.264375	84.339056	51.671678
0.025000	-2.367547	-3.808797	97.590660	0.063494	-0.111412	0.051269	89.740744	21.817037	-1.575814	-3.942701	36.789263	-25.891095	-40.179982	63.320154	8.995645	64.384558	47.166275	68.182082	6.451189	68.490606	48.286035	71.679937	-4.981370	79.531748	53.364914	54.659726	-10.132396	83.046390	50.968563
0.035000	-2.367547	-3.808797	97.590660	0.063225	-0.108127	0.050442	89.631127	22.387403	-1.948949	-4.325933	37.083781	-26.017492	-40.253229	63.153221	8.905352	63.261604	46.733459	68.381687	6.532082	67.594958	48.207850	71.568447	-5.075625	79.314026	54.110264	55.179649	-10.040330	81.415415	50.287973
0.045000	-2.367547	-3.808797	97.590660	0.063113	-0.104709	0.049817	89.733631	23.034793	-2.245576	-4.698214	37.532817	-25.923792	-40.109077	63.137517	8.787205	62.019267	46.198928	68.373989	6.570269	66.743660	48.264462	71.331222	-5.125997	78.964352	54.790929	55.321824	-9.988891	79.756285	49.711250
0.055000	-2.367547	-3.808797	97.590660	0.063143	-0.101650	0.049435	89.981754	23.692539	-2.423103	-4.985701	38.051916	-25.697451	-39.860117	63.242122	8.665863	60.831535	45.699232	68.249902	6.576202	66.089719	48.509139	71.113492	-5.146234	78.612059	55.384087	55.263727	-9.965992	78.387449	49.287474
0.065000	-2.367547	-3.808797	97.590660	0.063229	-0.099385	0.049255	90.278485	24.274610	-2.491427	-5.138291	38.536418	-25.445407	-39.642827	63.362938	8.560971	59.875852	45.351497	68.064847	6.567254	65.718717	48.916488	70.972846	-5.154641	78.368372	55.865399	55.119197	-9.953733	77.533322	49.040321
0.075000	-2.367547	-3.808797	97.590660	0.063254	-0.098130	0.049196	90.517140	24.696637	-2.492926	-5.155531	38.902229	-25.244296	-39.557526	63.400917	8.485425	59.257275	45.212168	67.850836	6.558518	65.633621	49.403675	70.898833	-5.165047	78.291494	56.221423	54.930611	-9.935583	77.235718	48.965270
0.085000	-2.367547	-3.808797	97.590660	0.063116	-0.097811	0.049179	90.622553	24.901636	-2.471490	-5.073720	39.114658	-25.109469	-39.625870	63.307203	8.442374	58.962425	45.258560	67.616127	6.557021	65.758614	49.865902	70.833978	-5.182349	78.366674	56.456241	54.686467	-9.901816	77.349577	49.029745
0.095000	-2.367547	-3.808797	97.590660	0.062770	-0.098121	0.049171	90.577510	24.877841	-2.449745	-4.938422	39.192726	-25.002837	-39.789043	63.087746	8.424513	58.876666	45.407993	67.345934	6.561220	65.972872	50.214513	70.701500	-5.203731	78.522191	56.590632	54.352555	-9.851117	77.630038	49.182289
0.105000	-2.367547	-3.808797	97.590660	0.062236	-0.098675	0.049176	90.418177	24.659936	-2.427676	-4.784482	39.189585	-24.871949	-39.947650	62.782002	8.417771	58.851744	45.564395	67.015727	6.564802	66.162006	50.404983	70.439964	-5.223172	78.672916	56.655521	53.903992	-9.788535	77.855252	49.367588
0.115000	-2.367547	-3.808797	97.590660	0.061584	-0.099171	0.049219	90.207906	24.314159	-2.399071	-4.630240	39.161917	-24.691996	-40.020182	62.435860	8.408237	58.781185	45.665150	66.613195	6.561989	66.262316	50.446913	70.032390	-5.235833	78.765506	56.683630	53.344711	-9.721946	77.916726	49.541234
0.125000	-2.367547	-3.808797	97.590660	0.060899	-0.099480	0.049321	90.008437	23.915326	-2.368621	-4.481322	39.144589	-24.484108	-39.986133	62.082428	8.388457	58.642691	45.702719	66.154397	6.551357	66.278453	50.394847	69.514190	-5.240369	78.801841	56.702120	52.706463	-9.659092	77.840448	49.679496
0.135000	-2.367547	-3.808797	97.590660	0.060246	-0.099626	0.049485	89.861054	23.526148	-2.354203	-4.337517	39.140933	-24.302413	-39.889689	61.735165	8.359436	58.491019	45.712850	65.683107	6.536542	66.270105	50.324601	68.955367	-5.238968	78.831552	56.727170	52.031496	-9.605935	77.743415	49.781055
0.145000	-2.367547	-3.808797	97.590660	0.059655	-0.099716	0.049693	89.780421	23.186213	-2.373708	-4.198682	39.129521	-24.202917	-39.805313	61.391208	8.327687	58.413569	45.741665	65.253963	6.524089	66.317468	50.304802	68.427735	-5.235861	78.920888	56.761735	51.352329	-9.566150	77.757903	49.860121
0.155000	-2.367547	-3.808797	97.590660	0.059129	-0.099844	0.049911	89.758611	22.911885	-2.429325	-4.067819	39.080935	-24.215680	-39.790639	61.039671	8.300025	58.478330	45.814519	64.909383	6.520046	66.482806	50.375156	67.975453	-5.235238	79.116866	56.798350	50.681062	-9.541303	77.963628	49.933973
0.165000	-2.367547	-3.808797	97.590660	0.058659	-0.100045	0.050105	89.775199	22.702988	-2.503175	-3.950806	38.975105	-24.335087	-39.857255	60.670011	8.279834	58.701782	45.924541	64.662392	6.527134	66.784388	50.539069	67.603085	-5.239493	79.426215	56.826770	50.012513	-9.531171	78.357033	50.011030
0.175000	-2.367547	-3.808797	97.590660	0.058239	-0.100291	0.050254	89.808705	22.550466	-2.567515	-3.853480	38.811051	-24.528949	-39.973818	60.277731	8.266695	59.048067	46.043287	64.493232	6.543673	67.191909	50.770703	67.284151	-5.248552	79.817895	56.842402	49.337030	-9.533890	78.864434	50.085560
0.185000	-2.367547	-3.808797	97.590660	0.057866	-0.100530	0.050351	89.844950	22.441489	-2.601010	-3.778028	38.605353	-24.756765	-40.092974	59.866347	8.258567	59.452873	46.141780	64.360457	6.564613	67.643114	51.030449	66.982046	-5.260491	80.243517	56.850113	48.653981	-9.546150	79.383895	50.141529
0.195000	-2.367547	-3.808797	97.590660	0.057540	-0.100714	0.050407	89.879799	22.361824	-2.599335	-3.721052	38.381877	-24.985847	-40.181130	59.445800	8.254204	59.855382	46.206664	64.220169	6.584032	68.072645	51.281325	66.670361	-5.272948	80.661377	56.861228	47.977505	-9.563882	79.830783	50.163077
0.205000	-2.367547	-3.808797	97.590660	0.057257	-0.100831	0.050444	89.916779	22.297261	-2.574634	-3.674785	38.159737	-25.198806	-40.233623	59.028950	8.254053	60.221113	46.243328	64.043614	6.597799	68.438457	51.500704	66.342901	-5.284403	81.050772	56.886681	47.331827	-9.583435	80.166350	50.145561
0.215000	-2.367547	-3.808797	97.590660	0.057009	-0.100898	0.050482	89.962251	22.235361	-2.546849	-3.630887	37.946449	-25.392027	-40.270387	58.628619	8.259543	60.546156	46.268034	63.825346	6.605013	68.732612	51.684558	66.011534	-5.294591	81.411500	56.931676	46.740172	-9.602442	80.401635	50.101028
0.225000	-2.367547	-3.808797	97.590660	0.056785	-0.100944	0.050537	90.021021	22.167395	-2.533704	-3.584417	37.738866	-25.569005	-40.318806	58.256511	8.271847	60.844894	46.296820	63.580440	6.607637	68.972869	51.844111	65.696648	-5.303997	81.752763	56.994999	46.214071	-9.619690	80.581776	50.055360
0.235000	-2.367547	-3.808797	97.590660	0.056578	-0.100996	0.050612	90.094004	22.089455	-2.544349	-3.535538	37.529494	-25.733507	-40.395529	57.923238	8.291128	61.131997	46.338123	63.334894	6.608840	69.183384	51.997296	65.417055	-5.313015	82.080447	57.071987	45.748313	-9.634218	80.762043	50.038607
0.245000	-2.367547	-3.808797	97.590660	0.056387	-0.101064	0.050707	90.178113	22.002141	-2.578076	-3.488412	37.313484	-25.885811	-40.497058	57.637765	8.316524	61.410206	46.391587	63.114840	6.611191	69.378030	52.159018	65.184041	-5.321480	82.390155	57.157743	45.323839	-9.644624	80.985607	50.072782
0.255000	-2.367547	-3.808797	97.590660	0.056213	-0.101143	0.050814	90.267600	21.909058	-2.626980	-3.448609	37.092585	-26.022576	-40.602744	57.405585	8.346559	61.669240	46.451217	62.938371	6.615646	69.555475	52.334187	65.000485	-5.328864	82.668410	57.248137	44.917674	-9.649281	81.268764	50.161996
0.265000	-2.367547	-3.808797	97.590660	0.056058	-0.101220	0.050926	90.355681	21.814910	-2.680319	-3.420675	36.874906	-26.139208	-40.686705	57.226541	8.379503	61.893563	46.509459	62.811526	6.621607	69.705752	52.515916	64.862996	-5.334868	82.899890	57.338861	44.515337	-9.647229	81.596623	50.289153
0.275000	-2.367547	-3.808797	97.590660	0.055925	-0.101283	0.051035	90.435709	21.723967	-2.728441	-3.406663	36.671559	-26.233153	-40.730922	57.093899	8.413524	62.072491	46.559893	62.728569	6.627686	69.821191	52.688982	64.764290	-5.339859	83.076244	57.424441	44.118742	-9.638941	81.930808	50.421523
0.285000	-2.367547	-3.808797	97.590660	0.055813	-0.101326	0.051135	90.502106	21.639353	-2.765156	-3.405790	36.492219	-26.306466	-40.732517	56.995572	8.446719	62.206506	46.598413	62.675684	6.632604	69.903864	52.836497	64.694430	-5.344748	83.201813	57.498587	43.744605	-9.626385	82.226977	50.523786
0.295000	-2.367547	-3.808797	97.590660	0.055718	-0.101354	0.051222	90.551501	21.563123	-2.788478	-3.415185	36.341610	-26.366005	-40.702790	56.917295	8.477324	62.306902	46.623779	62.636546	6.635804	69.965837	52.946610	64.641609	-5.350398	83.293261	57.555729	43.414582	-9.612424	82.454014	50.572666
